:SAMPLES-PER-SECOND 30
:FRAME-RANGE 1-1700
:FULLY-SPECIFIED
:DEGREES
1382
root  56.6931 39.6648 -29.9024 170.023 5.91995 172.276
RightUpLeg  0.0604042 7.99533 -11.6601
RightLeg  37.3009 2.52889 1.79914
RightFoot  -16.3007 0.420373 12.2277
RightToes  6.35937e-011 1.2921e-014 -6.02303e-014
Spine  15.7861 2.13059 5.19316
Spine1  -4.18771 1.3322 1.86747
HEad  2.67031 44.5539 -26.3851
LeftShoulder1  2.71884 -9.49016 -14.6208
LeftArm  27.418 -38.6974 -88.382
LeftForeArm  72.2049 4.02966 -15.4421
LeftHand  -0.149206 13.3273 -1.06801
RightShoulder  3.78481 8.86547 25.123
RightArm  -12.9964 30.4979 67.5326
RightForeArm  91.9866 -4.76484 5.98508
RightHand  0.646382 -9.2578 -19.7532
LeftUpLeg  -97.2709 8.61909 -47.1947
LeftLeg  109.313 -4.0641 9.56324
LeftFoot  -31.2055 -0.190565 -2.1624
LeftToes  -1.9349e-011 5.45182e-011 1.33515e-010
1383
root  56.2462 40.7958 -31.0413 169.214 4.99957 172.175
RightUpLeg  0.294985 10.5847 -10.447
RightLeg  39.471 -2.06362 -2.10451
RightFoot  -6.74567 -0.51076 11.5442
RightToes  6.35937e-011 1.2921e-014 -6.02303e-014
Spine  14.9424 1.71658 4.73179
Spine1  -4.20761 0.532464 3.75693
HEad  7.56907 45.5997 -24.1415
LeftShoulder1  2.68117 -9.47094 -14.3321
LeftArm  23.8051 -38.9754 -86.0137
LeftForeArm  68.132 4.70247 -15.2195
LeftHand  -0.109356 11.9791 -0.73815
RightShoulder  3.81574 8.84822 25.4362
RightArm  -12.8898 31.621 68.5282
RightForeArm  94.5163 -4.56561 5.48217
RightHand  0.761661 -10.0394 -19.3327
LeftUpLeg  -97.885 9.49414 -48.4638
LeftLeg  108.185 -3.40428 8.39969
LeftFoot  -31.5301 -0.303477 -2.77216
LeftToes  -1.9349e-011 5.45182e-011 1.33515e-010
1384
root  55.7809 41.4209 -32.0583 168.774 2.5879 171.841
RightUpLeg  -0.453346 9.7026 -10.3728
RightLeg  42.5629 -2.01789 -2.28682
RightFoot  -4.91193 -0.344336 5.52982
RightToes  6.35937e-011 1.2921e-014 -6.02303e-014
Spine  14.3644 1.33806 3.64379
Spine1  -3.88592 -0.217094 5.19081
HEad  10.2146 44.0214 -22.3084
LeftShoulder1  2.77984 -10.1045 -14.0489
LeftArm  22.2419 -39.0162 -85.5062
LeftForeArm  65.8264 5.01535 -15.1209
LeftHand  -0.0933483 11.2732 -0.597116
RightShoulder  3.76081 8.62911 25.5571
RightArm  -12.2221 32.2933 67.6722
RightForeArm  94.4706 -4.64792 5.97368
RightHand  0.788552 -10.1668 -19.4597
LeftUpLeg  -96.8724 8.64841 -50.3443
LeftLeg  106.215 -2.44332 6.51877
LeftFoot  -31.4507 -0.433848 -3.51537
LeftToes  -1.9349e-011 5.45182e-011 1.33515e-010
1385
root  55.3933 41.4889 -32.9301 168.607 0.80443 171.531
RightUpLeg  -1.16553 10.663 -9.88159
RightLeg  41.8719 2.48526 2.09203
RightFoot  -8.84258 -0.219864 7.31192
RightToes  6.35937e-011 1.2921e-014 -6.02303e-014
Spine  15.861 1.45254 2.43691
Spine1  -5.04173 -0.281203 6.01864
HEad  9.38773 41.9119 -21.8366
LeftShoulder1  2.93179 -10.5692 -14.4877
LeftArm  21.2792 -38.5363 -85.6067
LeftForeArm  67.0933 5.13865 -14.9647
LeftHand  -0.0589394 11.5561 0.0787348
RightShoulder  3.61989 8.24978 25.3613
RightArm  -11.52 32.7066 66.9277
RightForeArm  94.4644 -4.73712 6.52126
RightHand  0.816229 -10.3398 -19.4286
LeftUpLeg  -96.2909 7.97152 -51.8654
LeftLeg  104.595 -1.47884 3.99495
LeftFoot  -31.2573 -0.608527 -4.53729
LeftToes  -1.9349e-011 5.45182e-011 1.33515e-010
1386
root  55.0822 41.1969 -33.7425 169.078 0.187543 171.537
RightUpLeg  -3.03695 12.6517 -8.10971
RightLeg  38.7549 1.88006 1.34437
RightFoot  -12.8988 0.0146128 7.51434
RightToes  6.35937e-011 1.2921e-014 -6.02303e-014
Spine  15.8151 1.39891 2.26206
Spine1  -3.8313 -0.231568 5.15017
HEad  5.93496 40.4523 -22.1411
LeftShoulder1  2.8899 -10.7471 -13.865
LeftArm  18.807 -38.8071 -85.9793
LeftForeArm  69.0739 5.58966 -14.4681
LeftHand  -0.0241933 11.7277 0.703218
RightShoulder  3.71485 8.62171 25.1735
RightArm  -11.4933 33.7401 67.141
RightForeArm  94.4999 -4.69675 6.28251
RightHand  0.823617 -10.4038 -19.356
LeftUpLeg  -96.4234 7.84018 -52.3944
LeftLeg  103.527 -0.93114 2.32363
LeftFoot  -30.984 -0.635982 -4.7503
LeftToes  -1.9349e-011 5.45182e-011 1.33515e-010
1387
root  54.8289 40.4735 -34.5112 169.714 -0.555014 171.558
RightUpLeg  -5.47781 14.2112 -6.30337
RightLeg  35.1108 1.10881 0.582612
RightFoot  -18.7449 0.395184 8.06394
RightToes  6.35937e-011 1.2921e-014 -6.02303e-014
Spine  16.45 1.36249 1.4862
Spine1  -3.43233 -0.192327 4.57307
HEad  1.89873 39.3925 -22.9574
LeftShoulder1  2.88013 -10.9164 -13.519
LeftArm  19.1563 -39.3256 -86.2709
LeftForeArm  68.228 5.60918 -14.5005
LeftHand  -0.0345206 11.8098 0.523234
RightShoulder  3.8267 9.00099 25.1213
RightArm  -12.6265 34.4496 67.4883
RightForeArm  95.1095 -4.48974 5.18748
RightHand  0.803208 -10.3408 -19.1405
LeftUpLeg  -96.1458 7.55882 -52.2479
LeftLeg  102.866 -0.97783 2.61012
LeftFoot  -30.6292 -0.655182 -4.93927
LeftToes  -1.9349e-011 5.45182e-011 1.33515e-010
1388
root  54.5683 39.253 -35.3626 170.046 -1.80021 171.749
RightUpLeg  -7.7469 14.9416 -4.97797
RightLeg  32.401 4.46762 2.81003
RightFoot  -22.5138 0.95347 11.2825
RightToes  6.35937e-011 1.2921e-014 -6.02303e-014
Spine  16.8846 1.30939 1.07527
Spine1  -2.75316 -0.0574666 3.78931
HEad  -0.846311 38.1843 -23.1719
LeftShoulder1  2.90759 -10.9657 -13.6538
LeftArm  21.6996 -40.0208 -87.3656
LeftForeArm  68.5703 5.2752 -14.7774
LeftHand  -0.0534926 12.0539 0.210006
RightShoulder  3.90748 9.33814 24.9225
RightArm  -13.718 34.582 67.2527
RightForeArm  94.4469 -4.3938 4.41661
RightHand  0.725124 -9.97834 -18.7119
LeftUpLeg  -95.3235 6.66107 -51.355
LeftLeg  102.993 -1.55439 4.72904
LeftFoot  -30.1518 -0.556769 -4.45588
LeftToes  -1.9349e-011 5.45182e-011 1.33515e-010
1389
root  54.2927 38.2247 -36.3958 169.275 -2.64607 172.722
RightUpLeg  -9.55551 14.389 -2.10556
RightLeg  35.3845 3.89768 2.71074
RightFoot  -16.0891 -0.137988 -0.703522
RightToes  6.35937e-011 1.2921e-014 -6.02303e-014
Spine  17.3923 1.5694 2.77337
Spine1  -2.52278 0.302346 3.28703
HEad  -1.58652 37.5263 -22.6784
LeftShoulder1  2.92857 -11.0058 -13.7521
LeftArm  24.8705 -39.9476 -89.1115
LeftForeArm  71.4224 4.77465 -15.0118
LeftHand  -0.0855441 12.9702 -0.211499
RightShoulder  3.93338 9.57226 24.5435
RightArm  -14.2932 33.8909 66.7772
RightForeArm  92.5625 -4.47034 4.35099
RightHand  0.637635 -9.51707 -18.3683
LeftUpLeg  -92.9792 7.37151 -48.2387
LeftLeg  103.473 -1.89421 5.79895
LeftFoot  -30.6799 -0.492759 -3.97584
LeftToes  -1.9349e-011 5.45182e-011 1.33515e-010
1390
root  53.9657 36.1839 -37.2157 167.131 -3.7013 171.827
RightUpLeg  -12.8359 15.5076 -2.71586
RightLeg  51.2727 3.03726 3.69388
RightFoot  -28.4078 0.343913 3.57772
RightToes  6.35937e-011 1.2921e-014 -6.02303e-014
Spine  19.2334 1.68884 1.63523
Spine1  -0.803624 0.607765 2.4053
HEad  -3.73131 38.4963 -24.7427
LeftShoulder1  2.91176 -10.8317 -13.8995
LeftArm  25.5783 -40.2609 -90.6204
LeftForeArm  76.7637 4.6494 -14.8474
LeftHand  -0.141346 14.011 -0.832751
RightShoulder  3.96675 9.51818 24.9526
RightArm  -13.9307 34.6777 66.4932
RightForeArm  92.0349 -4.53115 4.57193
RightHand  0.612945 -9.45487 -17.973
LeftUpLeg  -92.1558 7.58495 -47.934
LeftLeg  104.23 -3.13463 9.69116
LeftFoot  -29.8324 -0.203719 -2.35494
LeftToes  -1.9349e-011 5.45182e-011 1.33515e-010
1391
root  53.4752 34.9047 -38.2241 166.307 -8.03574 171.365
RightUpLeg  -13.296 9.23382 -5.09812
RightLeg  59.7623 3.24697 5.53136
RightFoot  -33.8769 0.0155436 1.23706
RightToes  6.35937e-011 1.2921e-014 -6.02303e-014
Spine  18.8481 0.710992 0.789612
Spine1  0.834691 -0.671646 3.07301
HEad  -3.69226 39.0651 -24.9408
LeftShoulder1  3.04612 -11.6728 -13.6096
LeftArm  27.6848 -41.022 -92.0835
LeftForeArm  77.1431 4.27532 -15.088
LeftHand  -0.129974 14.177 -0.661032
RightShoulder  3.98056 10.0249 23.8234
RightArm  -14.4874 33.9974 66.1198
RightForeArm  90.8108 -4.55739 4.3895
RightHand  0.577256 -9.21407 -18.0151
LeftUpLeg  -88.7275 5.51034 -48.5581
LeftLeg  103.732 -4.06109 13.1662
LeftFoot  -29.354 -0.163256 -2.14484
LeftToes  -1.9349e-011 5.45182e-011 1.33515e-010
